# Blender v2.78 (sub 0) OBJ File: 'Colosseum.blend'
# www.blender.org
mtllib Colosseum.mtl
o Cube
v 0.500000 -0.300000 -0.200000
v 0.500000 -0.300000 0.200000
v -0.500000 -0.300000 0.200000
v -0.500000 -0.300000 -0.200000
v 0.500000 -0.300000 -0.200000
v 0.500000 -0.300000 0.200000
v -0.500000 -0.300000 0.200000
v -0.500000 -0.300000 -0.200000
v 0.500000 -0.300000 -0.200000
v 0.500000 -0.300000 0.200000
v -0.500000 -0.300000 0.200000
v -0.500000 -0.300000 -0.200000
v 0.500000 0.035092 -0.200000
v 0.500000 0.035092 0.200000
v -0.481867 0.121800 0.200000
v -0.481867 0.121800 -0.200000
v -0.386754 0.180358 0.200000
v -0.386754 0.180358 -0.200000
v -0.244511 0.220569 0.200000
v -0.244511 0.220569 -0.200000
v -0.096345 0.246954 0.200000
v -0.096345 0.246954 -0.200000
v 0.035866 0.267043 0.200000
v 0.035866 0.267043 -0.200000
v 0.166890 0.278776 0.200000
v 0.166890 0.278776 -0.200000
v 0.175394 0.198061 0.200000
v 0.175395 0.198061 -0.200000
v 0.224001 0.192378 0.200000
v 0.224001 0.192378 -0.200000
v 0.235908 0.078260 0.200000
v 0.235908 0.078260 -0.200000
v 0.282292 0.074060 0.200000
v 0.282293 0.074060 -0.200000
v 0.325029 0.077099 0.200000
v 0.325030 0.077099 -0.200000
v 0.369519 0.072286 0.200000
v 0.369519 0.072286 -0.200000
v 0.443667 0.056035 0.200000
v 0.443667 0.056035 -0.200000
vt 0.7208 0.0000
vt 0.9699 0.0000
vt 0.9699 0.6045
vt 0.7208 0.6045
vt 0.2491 0.6045
vt 0.2491 0.6633
vt 0.0000 0.6633
vt 0.0000 0.6045
vt 0.0000 0.0000
vt 0.0000 0.0000
vt 0.0000 0.0000
vt 0.0000 0.0000
vt 0.2491 0.7502
vt 0.0000 0.7502
vt 0.0000 0.0000
vt 0.0000 0.0000
vt 0.0000 0.0000
vt 0.0000 0.0000
vt 0.0000 0.0000
vt 0.0000 0.0000
vt 0.0000 0.0000
vt 0.0000 0.0000
vt 0.2491 0.8597
vt 0.4982 0.6045
vt 0.4982 0.8597
vt 0.7063 0.8463
vt 0.4982 0.8463
vt 0.4982 0.6045
vt 0.7063 0.6045
vt 0.2491 0.8403
vt 0.0000 0.8403
vt 0.2491 0.9206
vt 0.0000 0.9206
vt 0.2491 1.0000
vt 0.0000 1.0000
vt 0.9410 0.6045
vt 0.9915 0.6045
vt 0.9915 0.8463
vt 0.9410 0.8463
vt 1.0000 0.2418
vt 0.9699 0.2418
vt 0.9699 0.0000
vt 1.0000 0.0000
vt 0.8696 0.6045
vt 0.9410 0.6045
vt 0.9410 0.8463
vt 0.8696 0.8463
vt 0.7063 0.6045
vt 0.7351 0.6045
vt 0.7351 0.8463
vt 0.7063 0.8463
vt 0.7617 0.6045
vt 0.7617 0.8463
vt 0.7893 0.6045
vt 0.7893 0.8463
vt 0.8351 0.6045
vt 0.8351 0.8463
vt 0.8696 0.8463
vt 0.8696 0.6045
vt 0.3604 0.6045
vt 0.5821 0.5705
vt 0.5691 0.6045
vt 0.3604 0.6045
vt 0.1256 0.4987
vt 0.1275 0.4729
vt 0.0362 0.1544
vt 0.0613 0.0685
vt 0.3604 0.0000
vt 0.3604 0.0000
vt 0.3604 0.0000
vt 0.0198 0.2440
vt 0.1249 0.4449
vt 0.0000 0.4031
vt 0.0073 0.3239
vt 0.0503 0.4083
vt 0.0538 0.4377
vt 0.0977 0.0110
vt 0.3604 0.6045
vt 0.3604 0.6045
vt 0.1286 0.5256
vt 0.1387 0.5705
vt 0.1517 0.6045
vt 0.3604 0.0000
vt 0.3604 0.0000
vt 0.3604 0.0000
vt 0.6231 0.0110
vt 0.6595 0.0685
vt 0.6846 0.1544
vt 0.7010 0.2440
vt 0.7135 0.3239
vt 0.5959 0.4449
vt 0.6705 0.4083
vt 0.6670 0.4377
vt 0.7208 0.4031
vt 0.5933 0.4729
vt 0.5952 0.4987
vt 0.5922 0.5256
vt 0.3604 0.6045
vt 0.3604 0.6045
vn 0.0000 -1.0000 0.0000
vn -0.5243 0.8515 -0.0000
vn 0.0000 0.0000 1.0000
vn -0.2720 0.9623 -0.0000
vn -0.9991 0.0430 -0.0000
vn 1.0000 0.0000 0.0000
vn -0.1753 0.9845 -0.0000
vn -0.1502 0.9887 -0.0000
vn -0.0892 0.9960 -0.0000
vn 0.9945 0.1048 0.0000
vn 0.1161 0.9932 0.0000
vn 0.9946 0.1038 0.0000
vn 0.0902 0.9959 0.0000
vn -0.0709 0.9975 -0.0000
vn 0.1075 0.9942 0.0000
vn 0.2141 0.9768 0.0000
vn 0.3485 0.9373 0.0000
vn 0.0000 0.0000 -1.0000
usemtl Material
s off
f 1/1/1 2/2/1 3/3/1 4/4/1
f 15/5/2 17/6/2 18/7/2 16/8/2
f 1/9/3 5/10/3 6/11/3 2/12/3
f 17/6/4 19/13/4 20/14/4 18/7/4
f 3/15/3 7/16/3 8/17/3 4/18/3
f 7/16/3 11/19/3 12/20/3 8/17/3
f 5/10/3 9/21/3 10/22/3 6/11/3
f 11/23/5 15/5/5 16/24/5 12/25/5
f 9/26/6 13/27/6 14/28/6 10/29/6
f 19/13/7 21/30/7 22/31/7 20/14/7
f 21/30/8 23/32/8 24/33/8 22/31/8
f 23/32/9 25/34/9 26/35/9 24/33/9
f 25/36/10 27/37/10 28/38/10 26/39/10
f 27/40/11 29/41/11 30/42/11 28/43/11
f 29/44/12 31/45/12 32/46/12 30/47/12
f 31/48/13 33/49/13 34/50/13 32/51/13
f 33/49/14 35/52/14 36/53/14 34/50/14
f 35/52/15 37/54/15 38/55/15 36/53/15
f 37/54/16 39/56/16 40/57/16 38/55/16
f 13/58/17 40/57/17 39/56/17 14/59/17
f 1/60/18 40/61/18 13/62/18
f 2/63/3 35/64/3 33/65/3
f 19/66/3 17/67/3 3/68/3
f 11/69/3 7/70/3 3/68/3
f 21/71/3 19/66/3 31/72/3
f 25/73/3 23/74/3 27/75/3
f 31/72/3 29/76/3 27/75/3
f 27/75/3 23/74/3 31/72/3
f 15/77/3 11/69/3 3/68/3
f 2/63/3 6/78/3 10/79/3
f 17/67/3 15/77/3 3/68/3
f 31/72/3 23/74/3 21/71/3
f 37/80/3 35/64/3 2/63/3
f 31/72/3 19/66/3 3/68/3
f 39/81/3 37/80/3 2/63/3
f 33/65/3 31/72/3 2/63/3
f 2/63/3 10/79/3 14/82/3
f 31/72/3 3/68/3 2/63/3
f 14/82/3 39/81/3 2/63/3
f 4/83/3 8/84/3 12/85/3
f 12/85/18 16/86/18 18/87/18
f 18/87/18 20/88/18 12/85/18
f 22/89/18 24/90/18 32/91/18
f 28/92/18 30/93/18 32/91/18
f 24/90/18 26/94/18 28/92/18
f 12/85/18 20/88/18 22/89/18
f 4/83/3 12/85/3 22/89/3
f 24/90/18 28/92/18 32/91/18
f 34/95/18 36/96/18 1/60/18
f 4/83/18 22/89/18 32/91/18
f 36/96/18 38/97/18 1/60/18
f 4/83/18 32/91/18 1/60/18
f 9/98/3 5/99/3 1/60/3
f 32/91/18 34/95/18 1/60/18
f 13/62/3 9/98/3 1/60/3
f 1/60/18 38/97/18 40/61/18
