# Blender v2.78 (sub 0) OBJ File: 'Purple Dome.blend'
# www.blender.org
mtllib Purple Dome.mtl
o Cube
v 0.920000 -0.618319 -0.400000
v 0.920000 -0.618319 0.400000
v -0.920000 -0.618319 0.400000
v -0.920000 -0.618319 -0.400000
v 0.895377 -0.520944 -0.400000
v 0.895377 -0.520944 0.400000
v -0.895377 -0.520944 0.400000
v -0.895377 -0.520944 -0.400000
v 0.820432 -0.512022 -0.400000
v 0.820432 -0.512022 0.400000
v -0.820433 -0.512022 0.400000
v -0.820432 -0.512022 -0.400000
v 0.796243 0.145259 -0.388206
v 0.796243 0.145259 0.388206
v -0.796243 0.145259 0.388206
v -0.796243 0.145259 -0.388207
v 0.643236 0.157431 -0.388206
v 0.643236 0.157431 0.388206
v -0.643237 0.157431 0.388206
v -0.643236 0.157431 -0.388207
v 0.636979 0.319367 -0.388206
v 0.636979 0.319367 0.388206
v -0.636979 0.319367 0.388206
v -0.636978 0.319367 -0.388207
v 0.599798 0.358925 -0.388206
v 0.599798 0.358925 0.388206
v -0.599798 0.358925 0.388206
v -0.599798 0.358925 -0.388207
v 0.477341 0.386312 -0.388206
v 0.477341 0.386312 0.388206
v -0.477342 0.386312 0.388206
v -0.477341 0.386312 -0.388207
v 0.450335 0.630651 -0.388206
v 0.450335 0.630651 0.388206
v -0.450335 0.630651 0.388206
v -0.450335 0.630651 -0.388207
v 0.412303 0.685425 -0.388206
v 0.412303 0.685425 0.388206
v -0.412303 0.685425 0.388206
v -0.412303 0.685425 -0.388207
v 0.335438 0.749327 -0.388206
v 0.335438 0.749327 0.388206
v -0.335438 0.749327 0.388206
v -0.335437 0.749327 -0.388207
v 0.155560 0.802856 -0.388206
v 0.155560 0.802856 0.388206
v -0.155560 0.802856 0.388206
v -0.155560 0.802856 -0.388207
v 0.145306 0.973262 -0.388206
v 0.145306 0.973262 0.388206
v -0.145306 0.973262 0.388206
v -0.145306 0.973262 -0.388207
v 0.124173 1.028036 -0.388206
v 0.124173 1.028036 0.388206
v -0.124173 1.028036 0.388206
v -0.124173 1.028036 -0.388207
v 0.074857 1.091938 -0.388206
v 0.074857 1.091938 0.388206
v -0.074857 1.091938 0.388206
v -0.074857 1.091938 -0.388207
v 0.000000 1.116800 -0.388206
v 0.000000 1.116800 0.388206
vt 0.0000 0.5000
vt 0.2305 0.5000
vt 0.2305 1.0000
vt 0.0000 1.0000
vt 0.0414 0.2895
vt 0.0256 0.2837
vt 0.0256 0.2163
vt 0.0414 0.2105
vt 0.0072 0.2703
vt 0.0072 0.2297
vt 0.3379 0.9348
vt 0.3090 0.9348
vt 0.3090 0.7174
vt 0.3379 0.7174
vt 0.0000 0.2500
vt 0.3668 0.9348
vt 0.3379 0.9348
vt 0.3379 0.7174
vt 0.3668 0.7174
vt 0.3884 0.7174
vt 0.4100 0.7174
vt 0.4100 0.9348
vt 0.3884 0.9348
vt 0.3884 0.9348
vt 0.3668 0.9348
vt 0.3668 0.7174
vt 0.3884 0.7174
vt 0.4173 0.7174
vt 0.2305 0.7142
vt 0.2305 0.5032
vt 0.4173 0.5000
vt 0.6040 0.7174
vt 0.4173 0.7142
vt 0.4173 0.5032
vt 0.6040 0.5000
vt 0.8975 0.7110
vt 0.9416 0.7110
vt 0.9416 0.9220
vt 0.8975 0.9220
vt 0.8975 0.9220
vt 0.8534 0.9220
vt 0.8534 0.7110
vt 0.8975 0.7110
vt 0.9713 0.7110
vt 0.9253 0.7110
vt 0.9253 0.5000
vt 0.9713 0.5000
vt 0.6903 0.7110
vt 0.7364 0.7110
vt 0.7364 0.9220
vt 0.6903 0.9220
vt 0.9119 0.7110
vt 0.9119 0.5000
vt 0.7497 0.7110
vt 0.7497 0.9220
vt 0.2737 0.7174
vt 0.3090 0.7174
vt 0.3090 0.9284
vt 0.2737 0.9284
vt 0.9769 0.9220
vt 0.9416 0.9220
vt 0.9416 0.7110
vt 0.9769 0.7110
vt 0.7148 0.7110
vt 0.6443 0.7110
vt 0.6443 0.5000
vt 0.7148 0.5000
vt 0.8256 0.7110
vt 0.7551 0.7110
vt 0.7551 0.5000
vt 0.8256 0.5000
vt 0.6266 0.7110
vt 0.6266 0.5000
vt 0.7374 0.7110
vt 0.7374 0.5000
vt 0.6040 0.7110
vt 0.6040 0.5000
vt 0.7148 0.7110
vt 0.7148 0.5000
vt 0.7497 0.7110
vt 0.8016 0.7110
vt 0.8016 0.9220
vt 0.7497 0.9220
vt 0.8534 0.9220
vt 0.8016 0.9220
vt 0.8016 0.7110
vt 0.8534 0.7110
vt 0.9119 0.7110
vt 0.8633 0.7110
vt 0.8633 0.5000
vt 0.9119 0.5000
vt 0.6903 0.9220
vt 0.6417 0.9220
vt 0.6417 0.7110
vt 0.6903 0.7110
vt 0.8466 0.7110
vt 0.8466 0.5000
vt 0.6250 0.9220
vt 0.6250 0.7110
vt 0.8256 0.7110
vt 0.8256 0.5000
vt 0.6040 0.9220
vt 0.6040 0.7110
vt 0.2737 0.9284
vt 0.2521 0.9284
vt 0.2521 0.7174
vt 0.2737 0.7174
vt 0.2305 0.7174
vt 0.2305 0.9284
vt 0.0905 0.2923
vt 0.0905 0.2077
vt 0.1059 0.3412
vt 0.1059 0.1588
vt 0.1243 0.3620
vt 0.1243 0.1380
vt 0.1401 0.3724
vt 0.1401 0.1276
vt 0.2105 0.3797
vt 0.2105 0.1203
vt 0.2184 0.0870
vt 0.2184 0.4130
vt 0.2298 0.0769
vt 0.2298 0.4231
vt 0.2765 0.0752
vt 0.2765 0.4248
vt 0.2800 0.0336
vt 0.2800 0.4664
vt 0.4694 0.0271
vt 0.4694 0.4729
vt 0.4719 0.0067
vt 0.4719 0.4933
vt 0.5000 0.5000
vt 0.5000 0.0000
vt 0.5000 0.2500
vt 0.5072 0.2297
vt 0.5072 0.2703
vt 0.5256 0.2837
vt 0.5256 0.2163
vt 0.5905 0.2923
vt 0.5414 0.2895
vt 0.5414 0.2105
vt 0.5905 0.2077
vt 0.6059 0.3412
vt 0.6059 0.1588
vt 0.6243 0.3620
vt 0.6243 0.1380
vt 0.6401 0.3724
vt 0.6401 0.1276
vt 0.7105 0.3797
vt 0.7105 0.1203
vt 0.7184 0.4130
vt 0.7184 0.0870
vt 0.7298 0.4231
vt 0.7298 0.0769
vt 0.7765 0.4248
vt 0.7765 0.0752
vt 0.7800 0.4664
vt 0.7800 0.0336
vt 0.9694 0.4729
vt 0.9694 0.0271
vt 0.9719 0.4933
vt 0.9719 0.0067
vt 1.0000 0.0000
vt 1.0000 0.5000
vn 0.0000 -1.0000 -0.0000
vn -0.0000 0.0000 1.0000
vn 0.9695 0.2452 0.0000
vn -0.9695 0.2452 -0.0000
vn -0.1182 0.9930 -0.0000
vn 0.1182 0.9930 0.0000
vn -0.9993 0.0368 -0.0000
vn 0.9993 0.0368 0.0000
vn -0.0793 0.9969 -0.0000
vn 0.0793 0.9969 0.0000
vn -0.9993 0.0386 -0.0000
vn 0.9993 0.0386 0.0000
vn -0.7287 0.6849 -0.0000
vn 0.7287 0.6849 0.0000
vn -0.2183 0.9759 -0.0000
vn 0.2183 0.9759 0.0000
vn -0.9939 0.1099 -0.0000
vn 0.9939 0.1099 0.0000
vn -0.8214 0.5703 -0.0000
vn 0.8214 0.5703 0.0000
vn -0.6393 0.7690 -0.0000
vn 0.6393 0.7690 0.0000
vn -0.2852 0.9585 -0.0000
vn 0.2852 0.9585 0.0000
vn -0.9982 0.0601 -0.0000
vn 0.9982 0.0601 0.0000
vn -0.9330 0.3600 -0.0000
vn 0.9330 0.3600 0.0000
vn -0.7917 0.6110 -0.0000
vn 0.7917 0.6110 0.0000
vn -0.3152 0.9490 0.0000
vn 0.3152 0.9490 -0.0000
vn -0.0000 0.0179 0.9998
vn 0.0000 -0.0000 -1.0000
vn 0.0000 0.0179 -0.9998
usemtl Material
s off
f 1/1/1 2/2/1 3/3/1 4/4/1
f 50/5/2 54/6/2 55/7/2 51/8/2
f 55/7/2 54/6/2 58/9/2 59/10/2
f 1/11/3 5/12/3 6/13/3 2/14/3
f 59/10/2 58/9/2 62/15/2
f 3/16/4 7/17/4 8/18/4 4/19/4
f 7/20/5 11/21/5 12/22/5 8/23/5
f 5/24/6 9/25/6 10/26/6 6/27/6
f 11/28/7 15/29/7 16/30/7 12/31/7
f 9/32/8 13/33/8 14/34/8 10/35/8
f 15/36/9 19/37/9 20/38/9 16/39/9
f 13/40/10 17/41/10 18/42/10 14/43/10
f 19/44/11 23/45/11 24/46/11 20/47/11
f 17/48/12 21/49/12 22/50/12 18/51/12
f 23/45/13 27/52/13 28/53/13 24/46/13
f 21/49/14 25/54/14 26/55/14 22/50/14
f 27/56/15 31/57/15 32/58/15 28/59/15
f 25/60/16 29/61/16 30/62/16 26/63/16
f 31/64/17 35/65/17 36/66/17 32/67/17
f 29/68/18 33/69/18 34/70/18 30/71/18
f 35/65/19 39/72/19 40/73/19 36/66/19
f 33/69/20 37/74/20 38/75/20 34/70/20
f 39/72/21 43/76/21 44/77/21 40/73/21
f 37/74/22 41/78/22 42/79/22 38/75/22
f 43/80/23 47/81/23 48/82/23 44/83/23
f 41/84/24 45/85/24 46/86/24 42/87/24
f 47/88/25 51/89/25 52/90/25 48/91/25
f 45/92/26 49/93/26 50/94/26 46/95/26
f 51/89/27 55/96/27 56/97/27 52/90/27
f 49/93/28 53/98/28 54/99/28 50/94/28
f 55/96/29 59/100/29 60/101/29 56/97/29
f 53/98/30 57/102/30 58/103/30 54/99/30
f 59/104/31 62/105/31 61/106/31 60/107/31
f 57/108/32 61/106/32 62/105/32 58/109/32
f 46/110/2 50/5/2 51/8/2 47/111/2
f 42/112/2 46/110/2 47/111/2 43/113/2
f 38/114/2 42/112/2 43/113/2 39/115/2
f 34/116/2 38/114/2 39/115/2 35/117/2
f 30/118/2 34/116/2 35/117/2 31/119/2
f 30/118/2 31/119/2 27/120/2 26/121/2
f 27/120/2 23/122/2 22/123/2 26/121/2
f 23/122/2 19/124/2 18/125/2 22/123/2
f 19/124/2 15/126/2 14/127/2 18/125/2
f 15/126/33 11/128/33 10/129/33 14/127/33
f 11/128/2 7/130/2 6/131/2 10/129/2
f 2/132/2 6/131/2 7/130/2 3/133/2
f 61/134/34 57/135/34 60/136/34
f 56/137/34 60/136/34 57/135/34 53/138/34
f 48/139/34 52/140/34 49/141/34 45/142/34
f 52/140/34 56/137/34 53/138/34 49/141/34
f 44/143/34 48/139/34 45/142/34 41/144/34
f 40/145/34 44/143/34 41/144/34 37/146/34
f 36/147/34 40/145/34 37/146/34 33/148/34
f 32/149/34 36/147/34 33/148/34 29/150/34
f 28/151/34 32/149/34 29/150/34 25/152/34
f 24/153/34 28/151/34 25/152/34 21/154/34
f 20/155/34 24/153/34 21/154/34 17/156/34
f 16/157/34 20/155/34 17/156/34 13/158/34
f 12/159/35 16/157/35 13/158/35 9/160/35
f 8/161/34 12/159/34 9/160/34 5/162/34
f 1/163/34 4/164/34 8/161/34 5/162/34
