# Blender v2.82 (sub 7) OBJ File: ''
# www.blender.org
mtllib Tower.mtl
o path3877
v -0.005300 0.010186 0.004949
v -0.005300 0.010186 -0.000165
v -0.005300 0.010186 -0.005279
v 0.000521 0.010186 -0.005279
v 0.006342 0.010186 -0.005279
v 0.006342 0.010186 -0.000165
v 0.006342 0.010186 0.004949
v 0.000521 0.010186 0.004949
v -0.005300 0.000186 0.004949
v -0.005300 0.000186 -0.000165
v -0.005300 0.000186 -0.005279
v 0.000521 0.000186 -0.005279
v 0.006342 0.000186 -0.005279
v 0.006342 0.000186 -0.000165
v 0.006342 0.000186 0.004949
v 0.000521 0.000186 0.004949
v -0.005300 0.000186 0.004949
v -0.005300 0.010186 0.004949
v -0.005300 0.000186 -0.000165
v -0.005300 0.010186 -0.000165
v -0.005300 0.000186 -0.005279
v -0.005300 0.010186 -0.005279
v 0.000521 0.000186 -0.005279
v 0.000521 0.010186 -0.005279
v 0.006342 0.000186 -0.005279
v 0.006342 0.010186 -0.005279
v 0.006342 0.000186 -0.000165
v 0.006342 0.010186 -0.000165
v 0.006342 0.000186 0.004949
v 0.006342 0.010186 0.004949
v 0.000521 0.000186 0.004949
v 0.000521 0.010186 0.004949
vt 0.142857 0.000000
vt 0.428571 0.000000
vt 0.285714 0.000000
vt 0.571429 0.000000
vt 0.714286 0.000000
vt 0.000000 0.000000
vt 0.857143 0.000000
vt 1.000000 0.000000
vt 0.428571 0.000000
vt 0.142857 0.000000
vt 0.285714 0.000000
vt 0.571429 0.000000
vt 0.714286 0.000000
vt 0.000000 0.000000
vt 0.857143 0.000000
vt 1.000000 0.000000
vt 0.000000 1.000000
vt 0.125000 1.000000
vt 0.125000 0.000000
vt 0.000000 0.000000
vt 0.250000 1.000000
vt 0.250000 0.000000
vt 0.375000 1.000000
vt 0.375000 0.000000
vt 0.500000 1.000000
vt 0.500000 0.000000
vt 0.625000 1.000000
vt 0.625000 0.000000
vt 0.750000 1.000000
vt 0.750000 0.000000
vt 0.875000 1.000000
vt 0.875000 0.000000
vt 1.000000 1.000000
vt 1.000000 0.000000
vn 0.0000 1.0000 0.0000
vn 0.0000 0.0000 1.0000
vn 0.0000 -1.0000 0.0000
vn -0.7071 0.0000 0.7071
vn -1.0000 0.0000 0.0000
vn -0.7071 0.0000 -0.7071
vn 0.0000 0.0000 -1.0000
vn 0.7071 0.0000 -0.7071
vn 1.0000 0.0000 0.0000
vn 0.7071 0.0000 0.7071
usemtl SVGMat.017
s off
f 2/1/1 4/2/1 3/3/1
f 2/1/1 5/4/1 4/2/1
f 2/1/1 6/5/1 5/4/1
f 1/6/1 6/5/1 2/1/1
f 1/6/1 7/7/1 6/5/1
f 8/8/2 7/7/2 1/6/2
f 12/9/3 10/10/3 11/11/3
f 13/12/3 10/10/3 12/9/3
f 14/13/3 10/10/3 13/12/3
f 14/13/3 9/14/3 10/10/3
f 15/15/3 9/14/3 14/13/3
f 15/15/2 16/16/2 9/14/2
s 1
f 18/17/4 20/18/5 19/19/5 17/20/4
f 20/18/5 22/21/6 21/22/6 19/19/5
f 22/21/6 24/23/7 23/24/7 21/22/6
f 24/23/7 26/25/8 25/26/8 23/24/7
f 26/25/8 28/27/9 27/28/9 25/26/8
f 28/27/9 30/29/10 29/30/10 27/28/9
f 30/29/10 32/31/2 31/32/2 29/30/10
f 32/31/2 18/33/4 17/34/4 31/32/2
